<svg xmlns="http://www.w3.org/2000/svg" xmlns:xlink="http://www.w3.org/1999/xlink" width="274.421" height="72.504" viewBox="0 0 274.421 72.504"><defs><style>.a,.b{fill:#fff;}.b{font-size:49px;font-family:Montserrat-SemiBold, Montserrat;font-weight:600;}.c{clip-path:url(#a);}.d{fill:#ff9800;}.e{fill:#fe0059;}</style><clipPath id="a"><path class="a" d="M668.724-85.357a6.172,6.172,0,0,0,4.668,2.075,5.562,5.562,0,0,0,4.409-2.043,7.931,7.931,0,0,0,1.751-5.35v-26.586H694.6v26.586A20.411,20.411,0,0,1,691.969-80.2a17.8,17.8,0,0,1-7.425,6.971,24.246,24.246,0,0,1-11.217,2.464,24.853,24.853,0,0,1-11.316-2.464,18.073,18.073,0,0,1-7.586-6.971,20.017,20.017,0,0,1-2.692-10.473v-26.586h15.044v26.586A7.462,7.462,0,0,0,668.724-85.357Z" transform="translate(-651.734 117.261)"/></clipPath></defs><g transform="translate(-136 -182.813)"><g transform="translate(215.421 182.813)"><g transform="translate(0)"><text class="b" transform="translate(97 47)"><tspan x="-97.485" y="0">UniSUN</tspan></text></g></g><g transform="translate(136 183.761)"><g transform="translate(0 0)"><path class="a" d="M668.724-85.357a6.172,6.172,0,0,0,4.668,2.075,5.562,5.562,0,0,0,4.409-2.043,7.931,7.931,0,0,0,1.751-5.35v-26.586H694.6v26.586A20.411,20.411,0,0,1,691.969-80.2a17.8,17.8,0,0,1-7.425,6.971,24.246,24.246,0,0,1-11.217,2.464,24.853,24.853,0,0,1-11.316-2.464,18.073,18.073,0,0,1-7.586-6.971,20.017,20.017,0,0,1-2.692-10.473v-26.586h15.044v26.586A7.462,7.462,0,0,0,668.724-85.357Z" transform="translate(-651.734 117.261)"/><g class="c"><g transform="translate(24.55 24.092)"><path class="d" d="M725.445-59.761a23.193,23.193,0,0,0-7.391-1.621q-2.79,0-2.789,2.011a2.624,2.624,0,0,0,1.783,2.4,36.308,36.308,0,0,0,5.674,1.881,67.929,67.929,0,0,1,8.073,2.723,14.5,14.5,0,0,1,5.609,4.312,11.912,11.912,0,0,1,2.4,7.749,13.187,13.187,0,0,1-2.561,8.268,15.129,15.129,0,0,1-6.907,4.961,27.473,27.473,0,0,1-9.662,1.621,39.431,39.431,0,0,1-12.158-1.978,34.759,34.759,0,0,1-10.6-5.414L702.491-44.2a30.587,30.587,0,0,0,8.624,5.09A24.065,24.065,0,0,0,719.805-37a4.937,4.937,0,0,0,2.658-.616,2.1,2.1,0,0,0,.972-1.913,2.692,2.692,0,0,0-1.848-2.431,32.893,32.893,0,0,0-5.8-1.848,60.661,60.661,0,0,1-8.008-2.562,14.282,14.282,0,0,1-5.545-4.117,11.236,11.236,0,0,1-2.334-7.457,13.442,13.442,0,0,1,2.4-7.944,15.112,15.112,0,0,1,6.808-5.22,26.776,26.776,0,0,1,10.245-1.815,38.926,38.926,0,0,1,10.6,1.491,34.718,34.718,0,0,1,9.174,3.955L733.68-56A49.864,49.864,0,0,0,725.445-59.761Z" transform="translate(-696.914 72.924)"/></g></g></g><g transform="translate(24.55 24.091)"><path class="d" d="M725.445-59.763a23.2,23.2,0,0,0-7.392-1.621q-2.788,0-2.788,2.01a2.623,2.623,0,0,0,1.783,2.4,36.182,36.182,0,0,0,5.673,1.881A68.1,68.1,0,0,1,730.8-52.37a14.49,14.49,0,0,1,5.609,4.312,11.906,11.906,0,0,1,2.4,7.749,13.185,13.185,0,0,1-2.562,8.268,15.132,15.132,0,0,1-6.906,4.961,27.484,27.484,0,0,1-9.661,1.621,39.413,39.413,0,0,1-12.158-1.978,34.729,34.729,0,0,1-10.6-5.414L702.491-44.2a30.584,30.584,0,0,0,8.624,5.09A24.072,24.072,0,0,0,719.8-37a4.935,4.935,0,0,0,2.659-.616,2.1,2.1,0,0,0,.973-1.913,2.694,2.694,0,0,0-1.848-2.432,33.107,33.107,0,0,0-5.8-1.848,60.8,60.8,0,0,1-8.008-2.562,14.283,14.283,0,0,1-5.544-4.118,11.24,11.24,0,0,1-2.334-7.457,13.435,13.435,0,0,1,2.4-7.943,15.107,15.107,0,0,1,6.809-5.22,26.774,26.774,0,0,1,10.245-1.815,38.872,38.872,0,0,1,10.6,1.492,34.673,34.673,0,0,1,9.176,3.955L733.68-56A49.929,49.929,0,0,0,725.445-59.763Z" transform="translate(-696.914 72.926)"/></g><path class="e" d="M715.107-59.7a20.414,20.414,0,0,0,2.626-10.473v-2.214a24.086,24.086,0,0,0-6.121,1.536,15.111,15.111,0,0,0-6.808,5.22,13.442,13.442,0,0,0-2.4,7.944,11.956,11.956,0,0,0,1.6,6.371,21,21,0,0,0,3.676-1.413A17.8,17.8,0,0,0,715.107-59.7Z" transform="translate(-674.871 96.77)"/></g></g></svg>